<svg xmlns="http://www.w3.org/2000/svg" version="1.1" xmlns:xlink="http://www.w3.org/1999/xlink" xmlns:svgjs="http://svgjs.dev/svgjs" width="1500" height="1500" viewBox="0 0 1500 1500"><rect width="1500" height="1500" fill="#0a1627"></rect><g transform="matrix(0.6666666666666666,0,0,0.6666666666666666,250.3382473585147,220.4291497975708)"><svg viewBox="0 0 233 247" data-background-color="#0a1627" preserveAspectRatio="xMidYMid meet" height="1590" width="1500" xmlns="http://www.w3.org/2000/svg" xmlns:xlink="http://www.w3.org/1999/xlink"><g id="tight-bounds" transform="matrix(1,0,0,1,-0.07881163453390627,-0.09999999999999432)"><svg viewBox="0 0 233.1576232690678 247.2" height="247.2" width="233.1576232690678"><g><svg viewBox="0 0 323.10483534670493 342.56445994704785" height="247.2" width="233.1576232690678"><g><svg viewBox="0 0 323.10483534670493 342.56445994704785" height="342.56445994704785" width="323.10483534670493"><g id="textblocktransform"><svg viewBox="0 0 323.10483534670493 342.56445994704785" height="342.56445994704785" width="323.10483534670493" id="textblock"><g><svg viewBox="0 0 323.10483534670493 245.672304" height="245.672304" width="323.10483534670493"><g transform="matrix(1,0,0,1,0,0)"><svg width="323.10483534670493" viewBox="4.65 -34.9 45.9 34.9" height="245.672304" data-palette-color="#fe0039"><path d="M4.65 0L4.65-34.9 16.35-34.9Q19.6-34.9 22.25-33.8 24.9-32.7 26.78-30.53 28.65-28.35 29.65-25.08 30.65-21.8 30.65-17.45L30.65-17.45Q30.65-13.1 29.65-9.83 28.65-6.55 26.78-4.38 24.9-2.2 22.25-1.1 19.6 0 16.35 0L16.35 0 4.65 0ZM8.85-3.7L16.35-3.7Q18.5-3.7 20.3-4.42 22.1-5.15 23.4-6.55 24.7-7.95 25.43-9.98 26.15-12 26.15-14.6L26.15-14.6 26.15-20.3Q26.15-22.9 25.43-24.93 24.7-26.95 23.4-28.35 22.1-29.75 20.3-30.48 18.5-31.2 16.35-31.2L16.35-31.2 8.85-31.2 8.85-3.7ZM50.55 0L36.55 0 36.55-3.5 41.45-3.5 41.45-31.4 36.55-31.4 36.55-34.9 50.55-34.9 50.55-31.4 45.65-31.4 45.65-3.5 50.55-3.5 50.55 0Z" opacity="1" transform="matrix(1,0,0,1,0,0)" fill="#fe0039" class="wordmark-text-0" data-fill-palette-color="primary" id="text-0"></path></svg></g></svg></g><g transform="matrix(1,0,0,1,0,303.669638839104)"><svg viewBox="0 0 323.10483534670493 38.89482110794384" height="38.89482110794384" width="323.10483534670493"><g transform="matrix(1,0,0,1,0,0)"><svg width="323.10483534670493" viewBox="4.5 -24.5 288.71999999999997 35" height="38.89482110794384" data-palette-color="#c1c1c1"><g class="slogan-text-1" data-fill-palette-color="secondary" id="text-1"><path d="M25.5-21L25.5-3.5Q25.5-2.1 24.45-1.05 23.4 0 22 0L22 0 4.5 0 4.5-17.5 8-21 4.5-21 4.5-24.5 22-24.5Q23.4-24.5 24.45-23.45 25.5-22.4 25.5-21L25.5-21ZM11.5-3.5L21.5-3.5 21.5-21 8.5-21 8.5-0.5 11.5-3.5ZM47.25-14L47.25-10.5 43.75-10.5 43.75-14.5 36.75-14.5 36.75 0 33.25 0 33.25-17.5 36.75-17.5 36.75-15 39.25-17.5 43.75-17.5Q45.2-17.5 46.22-16.48 47.25-15.45 47.25-14L47.25-14ZM56.25-24.5L56.25-20.5 52.75-20.5 52.75-24.5 56.25-24.5ZM56.25-18.5L56.25 0 52.75 0 52.75-15 56.25-18.5ZM75.49-17.5L79.49-17.5 72.69 0 67.59 0 60.99-17.5 64.99-17.5 69.74-2.9 70.74-2.9 75.49-17.5ZM101.74-3L101.74 0 87.74 0Q86.29 0 85.27-1.03 84.24-2.05 84.24-3.5L84.24-3.5 84.24-14Q84.24-15.45 85.27-16.48 86.29-17.5 87.74-17.5L87.74-17.5 98.24-17.5Q99.69-17.5 100.72-16.48 101.74-15.45 101.74-14L101.74-14 101.74-10.5 98.24-7 88.24-7 91.24-10 98.24-10 98.24-14.5 87.74-14.5 87.74-3 101.74-3Z" fill="#fe0039" data-fill-palette-color="primary"></path><path d="M120.24-24.5L120.24 0 116.24 0 116.24-24.5 120.24-24.5ZM145.74-14L145.74 0 142.24 0 142.24-14.5 131.74-14.5 131.74 0 128.24 0 128.24-17.5 131.74-17.5 131.74-15 134.24-17.5 142.24-17.5Q143.69-17.5 144.71-16.48 145.74-15.45 145.74-14L145.74-14ZM155.48-17.5L166.98-17.5 163.93-14.5 155.48-14.5 155.48-10.5 162.48-10.5Q163.93-10.5 164.96-9.47 165.98-8.45 165.98-7L165.98-7 165.98-3.5Q165.98-2.05 164.96-1.03 163.93 0 162.48 0L162.48 0 151.98 0 151.98-3 162.48-3 162.48-7.5 155.48-7.5Q154.03-7.5 153.01-8.53 151.98-9.55 151.98-11L151.98-11 151.98-14Q151.98-15.45 153.01-16.48 154.03-17.5 155.48-17.5L155.48-17.5ZM189.73-14L189.73-3.5Q189.73-2.05 188.71-1.03 187.68 0 186.23 0L186.23 0 175.73 0 175.73 10.5 172.23 10.5 172.23-17.5 175.73-17.5 175.73-15 178.23-17.5 186.23-17.5Q187.68-17.5 188.71-16.48 189.73-15.45 189.73-14L189.73-14ZM178.23-3L186.23-3 186.23-14.5 175.73-14.5 175.73-0.5 178.23-3ZM214.23-3L214.23 0 200.23 0Q198.78 0 197.75-1.03 196.73-2.05 196.73-3.5L196.73-3.5 196.73-14Q196.73-15.45 197.75-16.48 198.78-17.5 200.23-17.5L200.23-17.5 210.73-17.5Q212.18-17.5 213.2-16.48 214.23-15.45 214.23-14L214.23-14 214.23-10.5 210.73-7 200.73-7 203.73-10 210.73-10 210.73-14.5 200.23-14.5 200.23-3 214.23-3ZM223.23-17.5L234.73-17.5 231.68-14.5 223.23-14.5 223.23-3 233.73-3 233.73 0 223.23 0Q221.78 0 220.75-1.03 219.73-2.05 219.73-3.5L219.73-3.5 219.73-14Q219.73-15.45 220.75-16.48 221.78-17.5 223.23-17.5L223.23-17.5ZM249.72-3L249.72 0 242.72 0Q241.27 0 240.25-1.03 239.22-2.05 239.22-3.5L239.22-3.5 239.22-14.5 234.22-14.5 237.22-17.5 239.22-17.5 239.22-21 242.72-24.5 242.72-17.5 249.72-17.5 249.72-14.5 242.72-14.5 242.72-3 249.72-3ZM272.22-14L272.22-3.5Q272.22-2.05 271.2-1.03 270.17 0 268.72 0L268.72 0 258.22 0Q256.77 0 255.75-1.03 254.72-2.05 254.72-3.5L254.72-3.5 254.72-14Q254.72-15.45 255.75-16.48 256.77-17.5 258.22-17.5L258.22-17.5 268.72-17.5Q270.17-17.5 271.2-16.48 272.22-15.45 272.22-14L272.22-14ZM258.22-3L268.72-3 268.72-14.5 258.22-14.5 258.22-3ZM293.22-14L293.22-10.5 289.72-10.5 289.72-14.5 282.72-14.5 282.72 0 279.22 0 279.22-17.5 282.72-17.5 282.72-15 285.22-17.5 289.72-17.5Q291.17-17.5 292.19-16.48 293.22-15.45 293.22-14L293.22-14Z" fill="#c1c1c1" data-fill-palette-color="secondary"></path></g></svg></g></svg></g></svg></g></svg></g></svg></g><defs></defs></svg><rect width="233.1576232690678" height="247.2" fill="none" stroke="none" visibility="hidden"></rect></g></svg></g></svg>